<svg width="63" height="64" viewBox="0 0 63 64" fill="none" xmlns="http://www.w3.org/2000/svg">
<line y1="-1.5" x2="38.6737" y2="-1.5" transform="matrix(-0.0105203 0.999945 -0.999988 -0.00482832 26.0383 17.9152)" stroke="#0991DE" stroke-width="3"/>
<line x1="38.5546" y1="16.2367" x2="38.5546" y2="58.3003" stroke="#0991DE" stroke-width="3"/>
<line x1="58.8689" y1="42.5" x2="3.09836" y2="42.5" stroke="#0991DE" stroke-width="3"/>
<line y1="-1.5" x2="55.7705" y2="-1.5" transform="matrix(-1 5.72269e-05 -6.1041e-05 -1 58.8689 32)" stroke="#0991DE" stroke-width="3"/>
<path d="M51.3532 30H45.7169C45.3835 28.3788 44.8002 26.9545 43.9669 25.7273C43.1487 24.5 42.1487 23.4697 40.9669 22.6364C39.8002 21.7879 38.5047 21.1515 37.0805 20.7273C35.6563 20.303 34.1714 20.0909 32.626 20.0909C29.8078 20.0909 27.2547 20.803 24.9669 22.2273C22.6941 23.6515 20.8835 25.75 19.535 28.5227C18.2017 31.2955 17.535 34.697 17.535 38.7273C17.535 42.7576 18.2017 46.1591 19.535 48.9318C20.8835 51.7045 22.6941 53.803 24.9669 55.2273C27.2547 56.6515 29.8078 57.3636 32.626 57.3636C34.1714 57.3636 35.6563 57.1515 37.0805 56.7273C38.5047 56.303 39.8002 55.6742 40.9669 54.8409C42.1487 53.9924 43.1487 52.9545 43.9669 51.7273C44.8002 50.4848 45.3835 49.0606 45.7169 47.4545H51.3532C50.929 49.8333 50.1563 51.9621 49.035 53.8409C47.9138 55.7197 46.5199 57.3182 44.8532 58.6364C43.1866 59.9394 41.3153 60.9318 39.2396 61.6136C37.179 62.2955 34.9744 62.6364 32.626 62.6364C28.6563 62.6364 25.126 61.6667 22.035 59.7273C18.9441 57.7879 16.5123 55.0303 14.7396 51.4545C12.9669 47.8788 12.0805 43.6364 12.0805 38.7273C12.0805 33.8182 12.9669 29.5758 14.7396 26C16.5123 22.4242 18.9441 19.6667 22.035 17.7273C25.126 15.7879 28.6563 14.8182 32.626 14.8182C34.9744 14.8182 37.179 15.1591 39.2396 15.8409C41.3153 16.5227 43.1866 17.5227 44.8532 18.8409C46.5199 20.1439 47.9138 21.7348 49.035 23.6136C50.1563 25.4773 50.929 27.6061 51.3532 30Z" fill="#0991DE"/>
</svg>
